<svg width="40" height="40" viewBox="0 0 40 40" fill="none" xmlns="http://www.w3.org/2000/svg">
<path fill-rule="evenodd" clip-rule="evenodd" d="M20 38.3334C9.8748 38.3334 1.66669 30.1253 1.66669 20.0001C1.66669 9.87486 9.8748 1.66675 20 1.66675C30.1252 1.66675 38.3333 9.87486 38.3333 20.0001C38.3333 30.1253 30.1252 38.3334 20 38.3334ZM20 35.0001C28.2843 35.0001 35 28.2844 35 20.0001C35 11.7158 28.2843 5.00008 20 5.00008C11.7157 5.00008 5.00002 11.7158 5.00002 20.0001C5.00002 28.2844 11.7157 35.0001 20 35.0001ZM28.3334 18.3334H17.357L21.1785 14.5119L18.8215 12.1549L10.9763 20.0001L18.8215 27.8453L21.1785 25.4882L17.357 21.6667H28.3334V18.3334Z" fill="#3371F2"/>
</svg>
